#N canvas 0 25 1920 1087 12;
#X obj 605 70 bng 15 250 50 0 empty empty empty 17 7 0 10 -262144 -1
-1;
#X obj 519 104 random 127;
#X obj 624 112 random 127;
#X obj 617 284 ctlout 44;
#X obj 500 282 ctlout 43;
#X obj 205 152 5;
#X obj 728 115 random 127;
#X obj 721 287 ctlout 36;
#X text 495 310 cutoff;
#X text 625 316 reso;
#X text 735 316 shape vco1;
#X obj 824 116 random 127;
#X obj 817 288 ctlout 37;
#X text 831 317 shape vco2;
#X obj 203 342 random 127;
#X text 179 548 porta;
#X obj 185 520 ctlout 5;
#X obj 727 359 random 127;
#X obj 823 360 random 127;
#X obj 720 531 ctlout 50;
#X obj 816 532 ctlout 51;
#X text 734 560 wave vco1;
#X text 830 561 wave vco2;
#X obj 976 113 random 127;
#X obj 1072 114 random 127;
#X text 983 314 amp a;
#X text 1079 315 amp d;
#X obj 969 285 ctlout 16;
#X obj 1065 286 ctlout 17;
#X obj 986 173 - 50;
#X obj 1049 382 random 127;
#X obj 1154 390 random 127;
#X obj 1258 393 random 127;
#X obj 1354 394 random 127;
#X text 1025 588 eg a;
#X text 1155 594 eg d;
#X text 1265 594 eg int;
#X text 1361 595 eg target;
#X obj 1030 560 ctlout 20;
#X obj 1147 562 ctlout 21;
#X obj 1251 565 ctlout 22;
#X obj 1347 566 ctlout 23;
#X obj 523 358 random 127;
#X obj 619 359 random 127;
#X text 530 559 level vco1;
#X text 626 560 level vco2;
#X obj 516 529 ctlout 39;
#X obj 612 531 ctlout 40;
#X obj 48 639 random 127;
#X obj 513 639 random 127;
#X obj 618 647 random 127;
#X obj 722 650 random 127;
#X obj 818 651 random 127;
#X obj 917 649 random 127;
#X obj 494 817 ctlout 57;
#X obj 611 819 ctlout 24;
#X text 489 845 lfo wave;
#X text 619 851 lfo rate;
#X obj 355 799 bng 15 250 50 0 empty empty empty 17 7 0 10 -262144
-1 -1;
#X text 729 851 lfo int;
#X text 825 852 lfo target;
#X text 924 850 lfo mode;
#X obj 715 822 ctlout 25;
#X obj 811 823 ctlout 56;
#X obj 910 821 ctlout 58;
#X obj 449 899 tgl 15 0 empty empty empty 17 7 0 10 -262144 -1 -1 1
1;
#X obj 523 442 +50;
#X obj 625 443 + 50;
#X text 398 927 enable lfo rand;
#X obj 738 8 key, f 4;
#X obj 481 47 sel 9;
#X obj 1304 112 random 127;
#X text 1311 313 amp r;
#X obj 1298 284 ctlout 19;
#X text 178 123 midi channel;
#X obj 1258 663 random 127;
#X obj 1363 671 random 127;
#X obj 1467 674 random 127;
#X obj 1563 675 random 127;
#X obj 1114 700 bng 15 250 50 0 empty empty empty 17 7 0 10 -262144
-1 -1;
#X obj 1074 901 tgl 15 0 empty empty empty 17 7 0 10 -262144 -1 -1
1 1;
#X obj 1042 766 spigot;
#X text 1234 869 multi type;
#X text 1342 876 multi sub type;
#X text 1456 875 multi shape;
#X text 1570 876 multi shift shape;
#X obj 1239 841 ctlout 53;
#X obj 1356 843 ctlout 103;
#X obj 1460 846 ctlout 54;
#X obj 1556 847 ctlout 104;
#X obj 1720 677 random 127;
#X obj 1726 761 + 50;
#X text 1703 876 level multi;
#X obj 1713 849 ctlout 33;
#X text 564 51 Generate patch;
#X text 782 8 press TAB to generate the patch;
#X text 1000 933 enable multiengine rand;
#X obj 214 893 tgl 15 0 empty empty empty 17 7 0 10 -262144 -1 -1 1
1;
#X text 143 917 sync/ring/cross mod rand;
#X obj 313 737 spigot;
#X obj 178 737 spigot;
#X obj 186 788 bng 15 250 50 0 empty empty empty 17 7 0 10 -262144
-1 -1;
#X obj 149 643 random 127;
#X obj 159 681 ctlout 81;
#X obj 238 642 random 127;
#X text 56 700 sync mod;
#X text 167 703 ring mod;
#X text 250 703 cross mod;
#X obj 58 677 ctlout 80;
#X obj 248 680 ctlout 41;
#X connect 0 0 1 0;
#X connect 0 0 2 0;
#X connect 0 0 6 0;
#X connect 0 0 11 0;
#X connect 0 0 14 0;
#X connect 0 0 17 0;
#X connect 0 0 18 0;
#X connect 0 0 23 0;
#X connect 0 0 24 0;
#X connect 0 0 30 0;
#X connect 0 0 31 0;
#X connect 0 0 32 0;
#X connect 0 0 33 0;
#X connect 0 0 42 0;
#X connect 0 0 43 0;
#X connect 0 0 71 0;
#X connect 0 0 5 0;
#X connect 0 0 81 0;
#X connect 0 0 99 0;
#X connect 0 0 100 0;
#X connect 1 0 4 0;
#X connect 2 0 3 0;
#X connect 5 0 3 2;
#X connect 5 0 4 2;
#X connect 5 0 7 2;
#X connect 5 0 12 2;
#X connect 5 0 16 2;
#X connect 5 0 19 2;
#X connect 5 0 20 2;
#X connect 5 0 27 2;
#X connect 5 0 28 2;
#X connect 5 0 38 2;
#X connect 5 0 39 2;
#X connect 5 0 40 2;
#X connect 5 0 41 2;
#X connect 5 0 47 2;
#X connect 5 0 46 2;
#X connect 5 0 54 2;
#X connect 5 0 55 2;
#X connect 5 0 62 2;
#X connect 5 0 63 2;
#X connect 5 0 64 2;
#X connect 5 0 73 2;
#X connect 5 0 86 2;
#X connect 5 0 87 2;
#X connect 5 0 88 2;
#X connect 5 0 89 2;
#X connect 5 0 93 2;
#X connect 5 0 103 2;
#X connect 5 0 108 2;
#X connect 5 0 109 2;
#X connect 6 0 7 0;
#X connect 11 0 12 0;
#X connect 14 0 16 0;
#X connect 17 0 19 0;
#X connect 18 0 20 0;
#X connect 23 0 29 0;
#X connect 24 0 28 0;
#X connect 29 0 27 0;
#X connect 30 0 38 0;
#X connect 31 0 39 0;
#X connect 32 0 40 0;
#X connect 33 0 41 0;
#X connect 42 0 66 0;
#X connect 43 0 67 0;
#X connect 48 0 108 0;
#X connect 49 0 54 0;
#X connect 50 0 55 0;
#X connect 51 0 62 0;
#X connect 52 0 63 0;
#X connect 53 0 64 0;
#X connect 58 0 49 0;
#X connect 58 0 50 0;
#X connect 58 0 51 0;
#X connect 58 0 52 0;
#X connect 58 0 53 0;
#X connect 65 0 99 1;
#X connect 66 0 46 0;
#X connect 67 0 47 0;
#X connect 69 0 70 0;
#X connect 70 0 0 0;
#X connect 71 0 73 0;
#X connect 75 0 86 0;
#X connect 76 0 87 0;
#X connect 77 0 88 0;
#X connect 78 0 89 0;
#X connect 79 0 75 0;
#X connect 79 0 76 0;
#X connect 79 0 77 0;
#X connect 79 0 78 0;
#X connect 79 0 90 0;
#X connect 80 0 81 1;
#X connect 81 0 79 0;
#X connect 90 0 91 0;
#X connect 91 0 93 0;
#X connect 97 0 100 1;
#X connect 99 0 58 0;
#X connect 100 0 101 0;
#X connect 101 0 48 0;
#X connect 101 0 102 0;
#X connect 101 0 104 0;
#X connect 102 0 103 0;
#X connect 104 0 109 0;
